<?xml version="1.0" encoding="UTF-8"?>
<svg id="Layer_2" xmlns="http://www.w3.org/2000/svg" version="1.1" viewBox="50 205 760 135">
  <!-- Generator: Adobe Illustrator 30.2.1, SVG Export Plug-In . SVG Version: 2.1.1 Build 1)  -->
  <defs>
    <style>
      .st0, .st1, .st2 {
        isolation: isolate;
      }

      .st1 {
        font-family: Figtree-Bold, Figtree;
        font-size: 134px;
        font-weight: 700;
        letter-spacing: -.06em;
      }

      .st2 {
        display: none;
      }
    </style>
  </defs>
  <path d="M92.23,261.9h-23.43c-6.48,0-11.74,5.26-11.74,11.74v23.43c0,2.23.62,4.31,1.7,6.09.29.48.62.94.98,1.38.24.29.49.57.76.83,2.12,2.12,5.06,3.44,8.3,3.44h23.43c6.48,0,11.74-5.26,11.74-11.74v-23.43c0-6.48-5.26-11.74-11.74-11.74h0Z"/>
  <path d="M139.13,215h-70.33c-6.48,0-11.74,5.26-11.74,11.74v35.14c3.01-3,7.16-4.86,11.74-4.86h23.43c9.16,0,16.62,7.46,16.62,16.62v23.43c0,4.58-1.86,8.73-4.86,11.74h35.14c6.48,0,11.74-5.26,11.74-11.74v-70.33c0-6.48-5.26-11.74-11.74-11.74ZM143.83,226.51l-24.25,24.25,3.44,3.44-14.12,3.78,3.78-14.12,3.44,3.44,24.25-24.25c.95-.95,2.5-.95,3.45,0s.95,2.5,0,3.45h.01Z"/>
  <g class="st0">
    <g class="st0">
      <g class="st0">
        <path d="M185.28,308.81v-93.8h19.97l27.34,40.47,27.34-40.47h19.83v93.8h-18.22v-65.12l-28.94,42.61-28.94-42.48v64.99h-18.38Z"/>
        <path d="M319.81,310.42c-6.61,0-12.46-1.5-17.55-4.49s-9.09-7.12-11.99-12.4c-2.9-5.27-4.35-11.34-4.35-18.22s1.5-12.95,4.49-18.22c2.99-5.27,7.1-9.4,12.33-12.4,5.23-2.99,11.23-4.49,18.02-4.49,5.9,0,11.32,1.54,16.28,4.62s8.93,7.59,11.93,13.53c2.99,5.94,4.49,13.16,4.49,21.64h-49.04c.45,4.47,2.37,8.02,5.76,10.65,3.39,2.64,7.24,3.95,11.52,3.95,3.66,0,6.65-.78,8.98-2.34,2.32-1.56,4.11-3.59,5.36-6.1l15.81,6.16c-1.88,3.75-4.31,6.99-7.3,9.72s-6.54,4.8-10.65,6.23c-4.11,1.43-8.8,2.14-14.07,2.14l-.02.02ZM305.34,266.87h28.94c-.27-2.77-1.16-5-2.68-6.7s-3.31-2.95-5.36-3.75c-2.06-.8-4.07-1.21-6.03-1.21s-3.91.38-6.1,1.14c-2.19.76-4.11,1.99-5.76,3.68-1.65,1.7-2.66,3.98-3.01,6.83h0Z"/>
        <path d="M389.76,310.42c-4.74,0-9.16-.58-13.27-1.74s-7.77-2.79-10.99-4.89-5.88-4.44-7.97-7.03c-2.1-2.59-3.46-5.31-4.09-8.17l17.96-5.36c1.16,3.04,3.22,5.65,6.16,7.84,2.95,2.19,6.65,3.33,11.12,3.42,4.73.09,8.6-.94,11.59-3.08,2.99-2.14,4.49-4.91,4.49-8.31,0-2.95-1.19-5.43-3.55-7.44-2.37-2.01-5.61-3.55-9.71-4.62l-12.19-3.22c-4.56-1.16-8.58-2.92-12.06-5.29s-6.21-5.29-8.17-8.78c-1.97-3.48-2.95-7.55-2.95-12.19,0-8.84,2.92-15.75,8.78-20.7,5.85-4.96,14.14-7.44,24.86-7.44,5.98,0,11.23.87,15.75,2.61,4.51,1.74,8.29,4.22,11.32,7.44,3.04,3.22,5.36,7.01,6.97,11.39l-17.82,5.49c-1.07-3.04-3.04-5.63-5.9-7.77s-6.48-3.22-10.85-3.22-7.97,1.03-10.52,3.08c-2.55,2.06-3.82,4.96-3.82,8.71,0,2.95,1.01,5.27,3.02,6.97,2.01,1.7,4.76,2.99,8.24,3.89l12.33,3.08c8.04,1.97,14.29,5.49,18.76,10.59,4.47,5.09,6.7,10.77,6.7,17.02,0,5.54-1.34,10.38-4.02,14.54-2.68,4.15-6.57,7.39-11.66,9.71s-11.26,3.48-18.49,3.48h-.02Z"/>
        <path d="M475.92,335.61v-35.91c-2.23,3.4-5.05,6.03-8.44,7.91-3.4,1.88-7.33,2.81-11.79,2.81-6.16,0-11.5-1.43-16.01-4.29-4.51-2.86-8.02-6.92-10.52-12.19s-3.75-11.48-3.75-18.63,1.25-13.47,3.75-18.69c2.5-5.23,6.01-9.27,10.52-12.13,4.51-2.86,9.85-4.29,16.01-4.29,4.56,0,8.58.98,12.06,2.95s6.3,4.69,8.44,8.17l.67-9.51h16.75v93.8h-17.69ZM460.24,294.2c3.04,0,5.74-.8,8.11-2.41,2.37-1.61,4.22-3.84,5.56-6.7,1.34-2.86,2.01-6.12,2.01-9.78s-.67-6.92-2.01-9.78-3.2-5.07-5.56-6.63c-2.37-1.56-5.11-2.34-8.24-2.34s-6.03.78-8.44,2.34-4.33,3.78-5.76,6.63c-1.43,2.86-2.14,6.12-2.14,9.78s.71,6.92,2.14,9.78c1.43,2.86,3.37,5.09,5.83,6.7,2.46,1.61,5.29,2.41,8.51,2.41h0Z"/>
        <path d="M524.16,310.42c-5.36,0-9.9-1.07-13.6-3.22-3.71-2.14-6.54-5.47-8.51-9.98s-2.95-10.34-2.95-17.49v-37.92h17.69v34.3c0,4.47.51,7.97,1.54,10.52,1.03,2.55,2.5,4.38,4.42,5.49,1.92,1.12,4.09,1.67,6.5,1.67,4.64.09,8.17-1.32,10.59-4.22,2.41-2.9,3.62-7.12,3.62-12.66v-35.11h17.69v67h-16.62l-.67-9.11c-2.23,3.4-5.02,6.03-8.38,7.91-3.35,1.88-7.12,2.81-11.32,2.81h0Z"/>
        <path d="M590.09,310.42c-8.04,0-14.27-1.79-18.69-5.36-4.42-3.57-6.63-8.62-6.63-15.14,0-7.15,2.39-12.53,7.17-16.15,4.78-3.62,11.5-5.43,20.17-5.43h15.81c-.62-4.11-1.92-7.26-3.89-9.45-1.97-2.19-4.78-3.28-8.44-3.28-2.86,0-5.45.63-7.77,1.88s-4.29,3.17-5.9,5.76l-15.54-5.36c1.25-2.86,3.08-5.65,5.49-8.38,2.41-2.72,5.56-4.96,9.45-6.7s8.64-2.61,14.27-2.61c6.79,0,12.44,1.3,16.95,3.89s7.86,6.23,10.05,10.92,3.24,10.25,3.15,16.68l-.4,37.12h-16.48l-.27-7.77c-1.7,3.04-4.09,5.36-7.17,6.97-3.08,1.61-6.86,2.41-11.32,2.41h0ZM593.03,295.68c2.86,0,5.45-.67,7.77-2.01s4.15-3.08,5.49-5.23c1.34-2.14,2.01-4.38,2.01-6.7v-.27h-10.05c-5.81,0-9.83.69-12.06,2.08-2.23,1.39-3.35,3.33-3.35,5.83,0,1.97.89,3.51,2.68,4.62,1.79,1.12,4.29,1.67,7.5,1.67h0Z"/>
        <path d="M631.76,308.81v-67h17.69v12.33c2.77-4.2,6.27-7.35,10.52-9.45,4.24-2.1,8.64-3.15,13.2-3.15v17.15c-4.11,0-7.97.49-11.59,1.47-3.62.98-6.54,2.59-8.78,4.82-2.23,2.23-3.35,5.09-3.35,8.58v35.24h-17.69Z"/>
        <path d="M704.79,310.42c-6.61,0-12.46-1.5-17.55-4.49s-9.09-7.12-11.99-12.4c-2.9-5.27-4.36-11.34-4.36-18.22s1.5-12.95,4.49-18.22c2.99-5.27,7.1-9.4,12.33-12.4,5.23-2.99,11.23-4.49,18.02-4.49,5.9,0,11.32,1.54,16.28,4.62s8.93,7.59,11.93,13.53c2.99,5.94,4.49,13.16,4.49,21.64h-49.04c.45,4.47,2.37,8.02,5.76,10.65,3.39,2.64,7.24,3.95,11.52,3.95,3.66,0,6.65-.78,8.98-2.34,2.32-1.56,4.11-3.59,5.36-6.1l15.81,6.16c-1.88,3.75-4.31,6.99-7.3,9.72s-6.54,4.8-10.65,6.23c-4.11,1.43-8.8,2.14-14.07,2.14v.02ZM690.32,266.87h28.94c-.27-2.77-1.16-5-2.68-6.7s-3.31-2.95-5.36-3.75c-2.06-.8-4.07-1.21-6.03-1.21s-3.91.38-6.1,1.14c-2.19.76-4.11,1.99-5.76,3.68-1.65,1.7-2.66,3.98-3.01,6.83h0Z"/>
        <path d="M767.36,310.42c-6.16,0-11.5-1.43-16.01-4.29-4.51-2.86-8.02-6.92-10.52-12.19s-3.75-11.48-3.75-18.63,1.25-13.47,3.75-18.69c2.5-5.23,6.01-9.27,10.52-12.13s9.85-4.29,16.01-4.29c4.38,0,8.29.92,11.73,2.75s6.23,4.45,8.38,7.84v-35.78h17.69v93.8h-16.75l-.54-9.38c-2.23,3.48-5.09,6.19-8.58,8.11-3.48,1.92-7.46,2.88-11.93,2.88h0ZM771.92,294.2c2.95,0,5.56-.74,7.84-2.21s4.09-3.55,5.43-6.23c1.34-2.68,2.1-5.72,2.28-9.11v-2.68c-.18-3.39-.94-6.41-2.28-9.04s-3.17-4.69-5.49-6.16-4.96-2.21-7.91-2.21c-3.22,0-6.05.78-8.51,2.34s-4.38,3.78-5.76,6.63c-1.39,2.86-2.08,6.12-2.08,9.78s.71,6.92,2.14,9.78,3.37,5.09,5.83,6.7c2.46,1.61,5.29,2.41,8.51,2.41h0Z"/>
      </g>
    </g>
  </g>
  <g class="st2">
    <g class="st0">
      <g class="st0">
        <text class="st1" transform="translate(175.36 308.8)"><tspan x="0" y="0">MeSquared</tspan></text>
      </g>
    </g>
  </g>
</svg>
